<?xml version="1.0" standalone="no"?>
<!DOCTYPE svg PUBLIC "-//W3C//DTD SVG 20010904//EN"
 "http://www.w3.org/TR/2001/REC-SVG-20010904/DTD/svg10.dtd">
<svg version="1.0" xmlns="http://www.w3.org/2000/svg"
 width="300.000000pt" height="63.000000pt" viewBox="0 0 300.000000 63.000000"
 preserveAspectRatio="xMidYMid meet">
<metadata>
Created by potrace 1.10, written by Peter Selinger 2001-2011
</metadata>
<g transform="translate(0.000000,63.000000) scale(0.100000,-0.100000)"
fill="#000000" stroke="none">
<path d="M2430 553 c0 -26 6 -36 29 -48 17 -8 46 -42 67 -77 21 -35 57 -92 81
-127 38 -55 43 -70 43 -118 0 -71 -13 -95 -45 -87 -24 6 -25 4 -25 -35 l0 -41
141 0 140 0 -3 37 c-3 33 -7 39 -33 43 -30 5 -30 6 -33 79 l-3 73 78 116 c43
63 90 124 106 135 18 14 27 30 27 49 l0 28 -94 0 c-52 0 -101 3 -110 6 -13 5
-16 -2 -16 -35 0 -39 2 -41 30 -41 17 0 30 -3 30 -6 0 -11 -92 -164 -99 -164
-8 0 -81 142 -81 157 0 6 12 13 28 15 23 3 27 7 27 36 l0 33 -143 2 -142 2 0
-32z m216 -28 c-9 -13 -16 -34 -16 -45 0 -38 85 -170 109 -170 16 0 76 75 106
132 28 54 29 57 12 76 -9 10 -14 22 -10 25 8 9 88 9 96 1 3 -4 -11 -26 -31
-49 -21 -24 -47 -60 -57 -81 -11 -21 -30 -50 -42 -64 -13 -13 -23 -30 -23 -37
0 -7 -4 -13 -10 -13 -16 0 -32 -82 -28 -137 3 -36 12 -61 26 -76 12 -13 22
-26 22 -30 0 -4 -36 -7 -80 -7 -44 0 -80 2 -80 5 0 3 9 18 21 34 12 16 22 50
26 82 6 59 -6 92 -53 155 -13 17 -24 34 -24 37 0 9 -59 96 -97 145 l-34 42 91
0 92 0 -16 -25z"/>
<path d="M1723 538 c-28 -32 -33 -52 -23 -87 7 -25 6 -31 -6 -31 -8 0 -17 13
-20 30 -9 44 -24 37 -24 -11 0 -28 -4 -39 -12 -36 -14 5 -14 11 -4 75 l8 42
-80 0 -80 0 -9 -52 c-7 -44 -13 -54 -41 -70 -30 -17 -35 -17 -63 -2 -35 18
-112 20 -152 5 -15 -6 -52 -33 -80 -60 -29 -28 -65 -54 -79 -60 -16 -6 -36
-27 -47 -49 -27 -52 -75 -92 -112 -92 -25 0 -29 3 -24 23 3 12 16 72 30 132
34 147 33 143 58 147 15 2 24 14 33 46 l13 42 -139 0 c-150 0 -150 0 -150 -61
0 -22 5 -29 20 -29 11 0 20 -2 20 -4 0 -2 -14 -67 -31 -143 -23 -102 -37 -144
-54 -163 -13 -14 -26 -41 -30 -60 l-6 -35 218 5 218 5 3 28 3 28 40 -32 c71
-56 158 -52 239 12 27 22 50 35 50 30 0 -5 12 -24 27 -41 25 -31 29 -32 84
-28 38 3 65 11 78 22 17 15 23 16 36 6 8 -7 15 -19 15 -26 0 -19 42 -34 95
-34 32 0 51 7 73 25 29 24 29 24 47 5 17 -18 31 -20 176 -20 l158 0 7 35 c9
49 0 65 -36 65 -23 0 -30 4 -30 20 0 14 9 20 38 25 117 17 177 48 211 106 17
31 37 40 26 11 -4 -9 -14 -51 -23 -92 -14 -70 -14 -77 2 -112 20 -42 53 -63
39 -25 -4 12 -6 110 -5 217 4 185 3 196 -17 221 -39 50 -74 58 -254 61 -101 2
-169 -1 -175 -7 -5 -5 -12 -27 -15 -47 -6 -37 -5 -38 24 -38 16 0 29 -5 29
-11 0 -11 -57 -280 -66 -311 -3 -10 -17 -18 -37 -20 -27 -2 -33 -8 -37 -33
l-6 -30 -12 35 -12 34 -30 -36 c-35 -42 -78 -55 -121 -38 -47 20 -49 64 -12
212 16 63 16 69 0 86 -9 10 -17 22 -17 25 0 4 35 7 78 7 l78 0 -33 -127 c-37
-143 -39 -163 -19 -163 22 0 47 47 57 110 5 32 16 74 24 94 15 36 21 188 9
221 -9 21 -56 45 -92 45 -17 0 -37 -9 -49 -22z m95 -28 c26 -24 28 -52 6 -74
-32 -33 -94 -7 -94 40 0 22 33 54 55 54 6 0 21 -9 33 -20z m504 0 c68 -19 92
-75 68 -162 -23 -83 -98 -134 -214 -145 l-64 -6 -5 -41 c-6 -46 5 -66 39 -66
32 0 39 -17 12 -31 -15 -8 -54 -10 -132 -5 -60 4 -112 8 -114 11 -10 9 11 25
33 25 29 0 39 16 54 90 49 227 61 286 61 297 0 8 -12 13 -30 13 -20 0 -30 5
-30 15 0 13 22 15 143 15 78 0 159 -5 179 -10z m-1362 -23 c0 -8 -11 -19 -25
-25 -32 -15 -38 -30 -71 -195 -22 -111 -24 -139 -14 -152 32 -39 122 1 181 81
23 32 45 52 47 45 5 -14 -16 -132 -27 -149 -8 -13 -313 -29 -356 -18 l-28 7
31 27 c28 24 34 40 62 167 36 166 36 182 10 190 -11 3 -20 13 -20 21 0 11 21
14 105 14 81 0 105 -3 105 -13z m634 -54 c-19 -63 -19 -65 18 -61 24 2 33 -1
36 -14 3 -15 -4 -18 -37 -18 -23 0 -41 -2 -41 -4 0 -3 -6 -35 -14 -73 -26
-130 -28 -153 -11 -153 9 0 22 15 30 34 16 39 32 53 45 40 15 -15 -33 -88 -69
-106 -40 -20 -67 -12 -95 26 -20 26 -20 27 -2 119 11 50 21 98 23 105 3 7 -4
12 -21 12 -34 0 -33 15 2 32 20 10 30 25 39 58 6 25 12 46 12 48 1 1 23 2 50
2 l49 0 -14 -47z m-234 -69 c84 -50 77 -172 -15 -252 -64 -57 -125 -67 -182
-32 -52 31 -67 62 -60 123 16 128 159 218 257 161z m270 -83 c0 -42 -10 -61
-31 -61 -22 0 -22 2 -8 53 12 45 39 51 39 8z"/>
<path d="M2185 481 c-9 -15 -64 -245 -60 -249 13 -13 80 14 110 43 54 55 77
183 36 205 -24 13 -78 13 -86 1z m70 -41 c15 -47 -56 -192 -82 -166 -6 6 19
124 37 171 11 28 36 25 45 -5z"/>
<path d="M1245 327 c-9 -14 -23 -60 -32 -104 -25 -119 -4 -164 51 -109 26 25
60 153 54 202 -4 40 -49 46 -73 11z m30 -107 c-9 -38 -23 -77 -31 -87 -12 -17
-13 -16 -14 13 0 33 25 126 43 159 20 36 21 -9 2 -85z"/>
<path d="M209 496 c-99 -26 -166 -92 -154 -151 3 -16 9 -52 13 -80 11 -68 25
-91 80 -126 56 -35 77 -36 133 -5 62 34 161 66 207 66 66 0 77 16 79 116 1 95
-7 119 -54 150 -30 19 -126 47 -118 34 10 -17 -32 -20 -67 -5 -33 13 -36 13
-33 -3 2 -9 4 -23 4 -31 1 -11 5 -11 19 2 21 20 37 22 26 5 -5 -8 0 -9 14 -6
12 4 19 2 16 -3 -3 -5 2 -12 11 -15 8 -4 15 -11 14 -18 -3 -23 1 -37 10 -32 5
3 14 0 20 -8 7 -8 22 -11 38 -8 26 5 96 -25 88 -38 -2 -4 -22 -7 -44 -8 -22
-1 -46 -3 -53 -4 -7 -2 -12 3 -11 10 2 6 -2 12 -8 12 -6 0 -8 -7 -5 -16 5 -12
2 -15 -10 -10 -8 3 -22 -1 -31 -9 -8 -8 -19 -13 -23 -10 -5 3 -27 -3 -49 -15
-48 -24 -51 -24 -51 -5 0 8 -5 15 -11 15 -6 0 -8 -9 -4 -20 6 -18 2 -22 -22
-19 -10 1 -22 -32 -22 -61 0 -21 3 -19 17 13 10 22 22 39 27 39 6 0 24 6 41
13 90 38 237 64 249 45 13 -20 -15 -38 -71 -45 -98 -12 -236 -65 -241 -93 -5
-21 35 -13 54 12 17 20 22 22 41 12 21 -11 20 -13 -24 -34 -25 -12 -50 -19
-56 -16 -7 4 -8 2 -4 -4 16 -26 -47 -17 -94 13 -47 29 -66 71 -75 160 -6 63
-4 73 15 98 12 15 39 36 61 47 44 23 49 24 49 10 0 -5 -9 -10 -20 -10 -11 0
-20 -5 -20 -11 0 -6 9 -8 23 -4 22 7 22 7 2 -8 -20 -16 -20 -16 0 -14 11 1 25
9 32 17 10 13 11 13 9 0 -6 -33 -19 -52 -26 -40 -5 8 -9 7 -13 -3 -3 -9 0 -18
8 -21 8 -3 17 3 20 15 4 10 13 19 22 19 8 0 13 6 10 13 -4 10 5 11 47 2 28 -5
56 -13 62 -17 7 -5 14 -2 17 5 3 7 -3 13 -12 14 -64 6 -97 29 -86 62 7 24 0
25 -66 7z m51 -37 c0 -4 -13 -7 -30 -7 -35 1 -35 1 -14 23 12 12 19 13 30 4 8
-6 14 -15 14 -20z m175 21 c3 -5 11 -7 19 -4 7 3 13 -1 13 -9 0 -9 -7 -12 -19
-9 -10 2 -18 0 -18 -5 0 -5 11 -10 25 -11 14 -1 25 3 25 8 0 6 5 10 11 10 5 0
7 -5 4 -11 -4 -6 0 -9 11 -7 11 2 24 -9 36 -29 l19 -32 -37 5 c-21 2 -43 9
-50 15 -8 7 -14 7 -19 -1 -3 -5 -11 -10 -17 -10 -7 0 -6 5 2 15 10 12 8 16
-13 24 -13 5 -27 17 -31 26 -3 9 -2 13 4 10 6 -3 15 -3 21 1 8 4 7 9 -2 15
-10 6 -10 9 -2 9 6 0 14 -4 18 -10z m105 -241 c-6 -10 -16 -20 -23 -21 -43 -5
-76 -8 -99 -9 -16 0 -28 -5 -28 -10 0 -5 -8 -9 -17 -8 -11 0 -13 3 -5 6 6 2
12 13 12 24 0 13 7 19 24 19 13 0 32 3 42 7 13 5 15 3 9 -8 -8 -12 -6 -12 8 0
16 12 21 9 18 -12 -1 -4 9 -3 21 4 33 17 37 23 11 15 -13 -4 -23 -5 -23 -1 0
8 43 24 53 18 4 -2 2 -13 -3 -24z"/>
<path d="M243 395 c-15 -10 -19 -22 -15 -37 4 -17 2 -20 -11 -15 -11 4 -14 2
-10 -8 4 -12 9 -12 26 -3 18 9 17 6 -6 -21 -15 -18 -27 -42 -26 -54 0 -18 3
-17 15 10 7 17 21 36 31 41 14 8 15 14 6 34 -12 27 -2 55 16 44 6 -4 11 -3 11
3 0 18 -16 20 -37 6z"/>
<path d="M314 394 c3 -9 -4 -24 -20 -39 -22 -21 -24 -26 -12 -44 15 -25 21
-26 38 -6 9 10 9 15 1 15 -6 0 -11 -5 -11 -11 0 -8 -5 -7 -16 2 -14 11 -14 13
0 21 9 5 20 7 25 3 5 -3 11 -1 13 3 1 5 23 16 48 24 l45 15 -54 8 c-36 5 -49
10 -40 16 11 7 10 9 -5 9 -12 0 -16 -5 -12 -16z"/>
<path d="M1871 208 c1 -57 4 -75 9 -58 12 36 12 128 0 135 -6 4 -10 -24 -9
-77z"/>
<path d="M910 10 c-18 -6 -8 -8 39 -9 35 -1 62 1 60 3 -10 9 -77 13 -99 6z"/>
</g>
</svg>
